<svg width="14" height="14" viewBox="0 0 14 14" fill="none" xmlns="http://www.w3.org/2000/svg">
<path d="M9.72 7.4563L12.384 10.1443C12.96 10.7203 13.248 11.2163 13.248 11.6323C13.248 12.0323 12.96 12.5203 12.384 13.0963C11.808 13.6563 11.32 13.9363 10.92 13.9363C10.52 13.9363 10.032 13.6483 9.456 13.0723L6.816 10.4083L4.152 13.0723C3.576 13.6483 3.088 13.9363 2.688 13.9363C2.304 13.9363 1.816 13.6563 1.224 13.0963C0.648 12.5203 0.36 12.0323 0.36 11.6323C0.36 11.2163 0.648 10.7203 1.224 10.1443L3.888 7.4563L1.224 4.7683C0.648 4.1923 0.36 3.7043 0.36 3.3043C0.36 2.8883 0.648 2.3923 1.224 1.8163C1.816 1.2403 2.304 0.952297 2.688 0.952297C3.088 0.952297 3.576 1.2403 4.152 1.8163L6.816 4.5043L9.456 1.8163C10.032 1.2403 10.52 0.952297 10.92 0.952297C11.32 0.952297 11.808 1.2403 12.384 1.8163C12.96 2.3923 13.248 2.8883 13.248 3.3043C13.248 3.7043 12.96 4.1923 12.384 4.7683L9.72 7.4563Z" fill="#36190D"/>
</svg>
