<svg width="24" height="27" viewBox="0 0 24 27" fill="none" xmlns="http://www.w3.org/2000/svg">
<path d="M19.79 13.93C17.73 15.98 14.78 16.61 12.19 15.8L7.48002 20.5C7.14002 20.85 6.47002 21.06 5.99002 20.99L3.81002 20.69C3.09002 20.59 2.42002 19.91 2.31002 19.19L2.01002 17.01C1.94002 16.53 2.17002 15.86 2.50002 15.52L7.20002 10.82C6.40002 8.22001 7.02002 5.27001 9.08002 3.22001C12.03 0.270007 16.82 0.270007 19.78 3.22001C22.74 6.17001 22.74 10.98 19.79 13.93Z" stroke="#292D32" stroke-width="1.5" stroke-miterlimit="10" stroke-linecap="round" stroke-linejoin="round"/>
<path d="M6.89001 16.49L9.19001 18.79" stroke="#292D32" stroke-width="1.5" stroke-miterlimit="10" stroke-linecap="round" stroke-linejoin="round"/>
<path d="M14.5 10C15.3284 10 16 9.32843 16 8.5C16 7.67157 15.3284 7 14.5 7C13.6716 7 13 7.67157 13 8.5C13 9.32843 13.6716 10 14.5 10Z" stroke="#292D32" stroke-width="1.5" stroke-linecap="round" stroke-linejoin="round"/>
</svg>
